# xmcd
# 
# Track frame offsets:
#     150
#     20082
#     41825
#     61487
#     81592
#     105650
#     128650
#     159062
# 
# Disc length: 2442
# 
# Revision: 18
# Processed by: cddbd v1.5.2PL0 Copyright (c) Steve Scherf et al.
# Submitted via: fre:ac v1.0.27
# 
DISCID=64098808
DTITLE=trf - EZ DO DANCE
DYEAR=1993
DGENRE=JPop
TTITLE0=EZ DO DANCE
TTITLE1=ROCK IT ON !!
TTITLE2=ISLAND ON YOUR MIND
TTITLE3=ON MY WAY
TTITLE4=ONE MORE NIGHT
TTITLE5=RAVING ZONE
TTITLE6=EZ DO DANCE (UK DANCE VERSION)
TTITLE7=ONE MORE NIGHT (UK DANCE VERSION)
EXTD=1993.7.21
EXTT0=
EXTT1=
EXTT2=
EXTT3=
EXTT4=
EXTT5=
EXTT6=
EXTT7=
PLAYORDER=
